<svg xmlns="http://www.w3.org/2000/svg" viewBox="-1 -1 2 2">
    <defs>
        <filter id="blur" x="-50%" y="-50%" width="200%" height="200%">
            <feGaussianBlur in="SourceGraphic" stdDeviation="0.015625" />
        </filter>
        <radialGradient id="circle1" cx="50%" cy="50%" r="50%" fx="50%" fy="50%">
            <stop offset="12.5%" stop-color="#000000" />
            <stop offset="87.5%" stop-color="#000000" />
            <stop offset="93.75%" stop-color="#000000" stop-opacity="0" />
            <stop offset="100%" stop-color="#000000" stop-opacity="0" />
        </radialGradient>
    </defs>
    <path d="
        M 0 0 L 0 -1 A 1 1 0 0 1 0.5 -0.866025
    " fill="#570000" fill-rule="evenodd" />
    <path d="
        M 0 0 L 0.5 -0.866025 A 1 1 0 0 1 0.866025 -0.5
    " fill="#006900" fill-rule="evenodd" />
    <path d="
        M 0 0 L 0.866025 -0.5 A 1 1 0 0 1 1 0
    " fill="#00006B" fill-rule="evenodd" />
    <path d="
        M 0 0 L 1 0 A 1 1 0 0 1 0.866025 0.5
    " fill="#6C6C00" fill-rule="evenodd" />
    <path d="
        M 0 0 L 0.866025 0.5 A 1 1 0 0 1 0.5 0.866025
    " fill="#006F6F" fill-rule="evenodd" />
    <path d="
        M 0 0 L 0.5 0.866025 A 1 1 0 0 1 0 1
    " fill="#200020" fill-rule="evenodd" />
    <path d="
        M 0 0 L 0 1 A 1 1 0 0 1 -0.5 0.866025
    " fill="#450000" fill-rule="evenodd" />
    <path d="
        M 0 0 L -0.5 0.866025 A 1 1 0 0 1 -0.866025 0.5
    " fill="#006E00" fill-rule="evenodd" />
    <path d="
        M 0 0 L -0.866025 0.5 A 1 1 0 0 1 -1 0
    " fill="#000067" fill-rule="evenodd" />
    <path d="
        M 0 0 L -1 0 A 1 1 0 0 1 -0.866025 -0.5
    " fill="#696900" fill-rule="evenodd" />
    <path d="
        M 0 0 L -0.866025 -0.5 A 1 1 0 0 1 -0.5 -0.866025
    " fill="#006E6E" fill-rule="evenodd" />
    <path d="
        M 0 0 L -0.5 -0.866025 A 1 1 0 0 1 0 -1
    " fill="#650065" fill-rule="evenodd" />
    <circle cx="0" cy="0" r="1" fill="url(#circle1)" />
    <path d="
        M 0 -1 L 0.5 -0.866025 L 0.866025 -0.5 L 1 0 L 0.866025 0.5 L 0.5 0.866025 L 0 1 L -0.5 0.866025 L -0.866025 0.5 L -1 0 L -0.866025 -0.5 L -0.5 -0.866025
        M 0 -0.875 L 0.4375 -0.757772 L 0.757772 -0.4375 L 0.875 0 L 0.757772 0.4375 L 0.4375 0.757772 L 0 0.875 L -0.4375 0.757772 L -0.757772 0.4375 L -0.875 0 L -0.757772 -0.4375 L -0.4375 -0.757772
    " fill="#000000" fill-rule="evenodd" />
<!--<path d="
        M 0 -0.9375 L 0.46875 -0.811899 L 0.811899 -0.46875 L 0.9375 0 L 0.811899 0.46875 L 0.46875 0.811899 L 0 0.9375 L -0.46875 0.811899 L -0.811899 0.46875 L -0.9375 0 L -0.811899 -0.46875 L -0.46875 -0.811899
        M 0 -0.875 L 0.4375 -0.757772 L 0.757772 -0.4375 L 0.875 0 L 0.757772 0.4375 L 0.4375 0.757772 L 0 0.875 L -0.4375 0.757772 L -0.757772 0.4375 L -0.875 0 L -0.757772 -0.4375 L -0.4375 -0.757772
    " fill="#FFFFFF" fill-rule="evenodd" />-->
    <circle cx="0" cy="0" r="0.875" fill-opacity="0" stroke="#FFFFFF" stroke-width="0.0625" />
    <path d="
        M 0 -0.6 L 0.375 -0.649519 L 0.519615 -0.3 L 0.75 0 L 0.519615 0.3 L 0.375 0.649519 L 0 0.6 L -0.375 0.649519 L -0.519615 0.3 L -0.75 0 L -0.519615 -0.3 L -0.375 -0.649519 
        M 0 -0.4 L 0.25 -0.433013 L 0.346410 -0.2 L 0.5 0 L 0.346410 0.2 L 0.25 0.433013 L 0 0.4 L -0.25 0.433013 L -0.346410 0.2 L -0.5 0 L -0.346410 -0.2 L -0.25 -0.433013
        M 0 -0.3 L 0.1875 -0.324760 L 0.259808 -0.15 L 0.375 0 L 0.259808 0.15 L 0.1875 0.324760 L 0 0.3 L -0.1875 0.324760 L -0.259808 0.15 L -0.375 0 L -0.259808 -0.15 L -0.1875 -0.324760
    " fill="#FFFFFF" fill-rule="evenodd" />
    <line x1="0.75" y1="0" x2="-0.75" y2="0" stroke="#000000" stroke-width="0.125" />
    <line x1="0.375" y1="0.649519" x2="-0.375" y2="-0.649519" stroke="#000000" stroke-width="0.125" />
    <line x1="-0.375" y1="0.649519" x2="0.375" y2="-0.649519" stroke="#000000" stroke-width="0.125" />
<!--<path d="
        M -0.125 -0.75 L -0.125 0.75 L 0.125 0.75 L 0.125 -0.75
    " fill="#000000" fill-rule="evenodd" />
    <path d="
        M 0 0 L -0.161762 -0.603704 L 0 -0.625 L 0.161762 -0.603704
    " fill="#FFFFFF" fill-rule="evenodd" />
    <path d="
        M -0.25 -0.5 L -0.25 0.5 L 0.25 0.5 L 0.25 -0.5
    " fill="#FFFFFF" fill-rule="evenodd" />
    <path d="
        M 0 -0.2 L 0.2 0 L 0 0.2 L -0.2 0
        M 0.141421 -0.141421 L 0.141421 0.141421 L -0.141421 0.141421 L -0.141421 -0.141421
    " fill="#FFFFFF" fill-rule="evenodd" />-->
</svg>